<?xml version="1.0" standalone="no"?>
<!DOCTYPE svg PUBLIC "-//W3C//DTD SVG 20010904//EN"
 "http://www.w3.org/TR/2001/REC-SVG-20010904/DTD/svg10.dtd">
<svg version="1.0" xmlns="http://www.w3.org/2000/svg"
 width="700.000000pt" height="700.000000pt" viewBox="0 0 700.000000 700.000000"
 preserveAspectRatio="xMidYMid meet">
<metadata>
Created by potrace 1.11, written by Peter Selinger 2001-2013
</metadata>
<g transform="translate(0.000000,700.000000) scale(0.100000,-0.100000)"
fill="#000000" stroke="none">
<path d="M0 4867 l0 -2133 53 -13 c109 -28 382 -123 534 -188 408 -173 870
-443 1241 -725 l103 -78 251 0 250 0 -6 128 c-17 331 -47 1234 -49 1462 -1
181 4 326 17 500 16 190 20 342 20 675 1 427 -7 573 -40 805 -12 85 -14 209
-12 660 l3 555 38 3 37 3 1 -173 c1 -202 9 -200 54 12 14 69 28 133 31 143 5
16 28 17 295 17 l289 0 0 -980 0 -980 143 6 c397 16 487 21 493 27 7 7 -16
829 -41 1507 -8 212 -15 393 -15 403 0 16 24 17 359 17 l359 0 6 -32 c3 -18 9
-334 12 -703 5 -549 3 -722 -10 -960 -18 -338 -31 -1557 -19 -1825 l8 -175 35
159 35 158 7 -63 c4 -35 21 -341 38 -679 17 -338 33 -629 36 -646 l4 -31 158
4 c457 12 562 20 662 51 l95 30 70 -38 70 -38 550 -16 c303 -9 614 -19 693
-22 l142 -7 0 114 0 114 -153 75 c-374 184 -750 425 -1143 735 -154 121 -373
306 -373 316 -1 3 375 3 834 1 l835 -5 0 1982 0 1981 -3500 0 -3500 0 0 -2133z"/>
<path d="M3114 4491 c-2 -2 -4 -31 -4 -63 l0 -58 153 0 c83 0 230 3 325 7
l172 6 0 53 0 53 -321 3 c-176 2 -323 1 -325 -1z"/>
<path d="M3440 4299 c-173 -4 -319 -7 -324 -8 -12 -1 -1 -685 19 -1241 24
-637 52 -1300 56 -1305 2 -2 92 1 199 5 107 5 227 9 266 10 l71 0 12 133 c6
72 16 231 21 352 11 236 11 1543 1 1865 l-6 195 -315 -6z"/>
<path d="M3250 1224 c-1724 -23 -3161 -43 -3192 -43 l-58 -1 0 -590 0 -590
3500 0 3500 0 0 635 0 635 -307 -1 c-170 -1 -1719 -21 -3443 -45z"/>
</g>
</svg>
